<?xml version="1.0" encoding="UTF-8"?>
<svg width="1005px" height="527px" viewBox="0 0 1005 527" version="1.1" xmlns="http://www.w3.org/2000/svg" xmlns:xlink="http://www.w3.org/1999/xlink">
    <defs>
        <path d="M658.801317,522.655987 L513.273321,375.797324 C507.335987,369.806657 497.653321,369.805324 491.714654,375.795991 L491.714654,375.795991 L346.154658,522.626654 C341.415991,527.39732 332.985325,527.394653 328.262658,522.62132 L328.262658,522.62132 L8.23599979,199.658662 C-2.48933327,188.833329 -2.48933327,171.387996 8.23599979,160.563996 L8.23599979,160.563996 L162.977329,4.40799989 C167.699996,-0.365333349 176.145329,-0.365333349 180.869329,4.40799989 L180.869329,4.40799989 L326.397325,151.26933 C332.334658,157.258663 342.017325,157.259996 347.957325,151.26933 L347.957325,151.26933 L493.515988,4.43199989 C495.885321,2.04533328 499.099988,0.705333316 502.461321,0.705333316 L502.461321,0.705333316 C505.823987,0.705333316 509.037321,2.04533328 511.407987,4.43199989 L511.407987,4.43199989 L657.00665,151.238663 C662.945317,157.226663 672.629317,157.223996 678.565316,151.231996 L678.565316,151.231996 L824.087979,4.36533322 C826.449313,1.97999995 829.671979,0.634666651 833.034646,0.634666651 L833.034646,0.634666651 C836.395979,0.634666651 839.618646,1.97999995 841.979979,4.36533322 L841.979979,4.36533322 L996.722642,160.523996 C1007.44664,171.346662 1007.44797,188.791995 996.725308,199.615995 L996.725308,199.615995 L676.69465,522.655987 C674.333316,525.04132 671.109317,526.386654 667.74665,526.386654 L667.74665,526.386654 C664.385317,526.386654 661.16265,525.04132 658.801317,522.655987 M612.031985,370.022657 L598.245318,414.310656 C596.575985,419.67199 598.003985,425.517323 601.957318,429.503989 L601.957318,429.503989 L656.96665,485.013321 C662.905317,491.006654 672.59065,491.006654 678.527983,485.011988 L678.527983,485.011988 L683.477316,480.018655 C685.34665,478.130655 686.687983,475.785321 687.366649,473.215988 L687.366649,473.215988 L697.885316,433.430656 C699.287983,428.127989 697.719983,422.479989 693.782649,418.65999 L693.782649,418.65999 L637.093317,363.642658 C634.073317,360.710658 630.298651,359.347991 626.574651,359.347991 L626.574651,359.347991 C620.286651,359.347991 614.143985,363.235991 612.031985,370.022657 M379.187991,302.121326 L306.563992,332.418658 C300.250659,335.051992 296.478659,341.583991 297.354659,348.367991 L297.354659,348.367991 L312.605326,466.605322 C313.030659,469.907988 314.531992,472.979988 316.875992,475.346655 L316.875992,475.346655 L326.429325,484.989321 C332.367992,490.979988 342.051991,490.981321 347.989325,484.990655 L347.989325,484.990655 L360.173324,472.701322 C362.113324,470.743988 363.483991,468.295988 364.137324,465.617322 L364.137324,465.617322 L399.774657,319.730659 C402.221323,309.715992 394.369323,300.921326 385.073324,300.921326 L385.073324,300.921326 C383.146657,300.921326 381.15999,301.298659 379.187991,302.121326 M164.294663,321.366659 L263.183993,421.161323 C269.943993,427.982656 281.501326,422.334656 280.273326,412.810656 L280.273326,412.810656 L271.927993,348.107991 C271.173327,342.259991 267.101327,337.378658 261.48266,335.587992 L261.48266,335.587992 L172.865329,307.361326 C171.935996,307.063992 171.029329,306.927992 170.163996,306.927992 L170.163996,306.927992 C163.189329,306.926659 158.761329,315.779992 164.294663,321.366659 M751.755981,328.223992 L732.741315,400.145323 C729.766648,411.394656 743.613315,419.31599 751.803981,411.049323 L751.803981,411.049323 L818.350646,343.877325 C827.706646,334.433325 821.261313,318.377325 807.970646,318.023992 L807.970646,318.023992 L766.830647,316.930659 C766.695981,316.927992 766.561314,316.925325 766.426648,316.925325 L766.426648,316.925325 C759.557314,316.925325 753.519981,321.550659 751.755981,328.223992 M463.589322,266.913327 L442.850656,275.563993 C438.398656,277.42266 435.094656,281.285326 433.949322,285.969326 L433.949322,285.969326 L407.34399,394.89199 C404.585323,406.177323 418.434656,413.929323 426.613323,405.67999 L426.613323,405.67999 L484.589321,347.198658 C487.697321,344.059991 489.287988,339.725325 488.941321,335.321325 L488.941321,335.321325 L484.561321,279.729326 C483.915988,271.523993 477.029321,265.73199 469.435988,265.73199 L469.435988,265.73199 C467.501322,265.73199 465.522655,266.10666 463.589322,266.913327 M527.895987,240.086661 L517.527987,244.411994 C511.470654,246.93866 507.725321,253.069327 508.241321,259.61066 L508.241321,259.61066 L514.250654,335.897325 C514.531987,339.475992 516.07332,342.838658 518.598654,345.389325 L518.598654,345.389325 L557.683986,384.82799 C565.739986,392.958657 579.553319,389.585324 582.954652,378.655991 L582.954652,378.655991 L612.786651,282.821326 C615.177318,275.139993 611.158651,266.925327 603.626652,264.101327 L603.626652,264.101327 L539.06932,239.883994 C537.34932,239.238661 535.542653,238.915994 533.73732,238.915994 L533.73732,238.915994 C531.74932,238.915994 529.762653,239.306661 527.895987,240.086661 M635.901317,293.342659 L630.535984,310.578659 C628.835984,316.039992 630.351984,321.994659 634.457317,325.979992 L634.457317,325.979992 L696.326649,386.025324 C701.343982,390.89599 709.747982,388.561324 711.534649,381.801324 L711.534649,381.801324 L726.601315,324.815992 C728.593315,317.282659 724.554649,309.465326 717.257315,306.727992 L717.257315,306.727992 L655.72265,283.64266 C653.963984,282.98266 652.16265,282.67066 650.393317,282.67066 L650.393317,282.67066 C643.950651,282.67066 637.934651,286.807993 635.901317,293.342659 M292.830659,208.117328 L212.771995,234.841327 C206.703995,236.866661 202.557328,242.478661 202.403995,248.873327 L202.403995,248.873327 L201.689328,278.64666 C201.526662,285.38666 205.830662,291.426659 212.254661,293.471993 L212.254661,293.471993 L260.691993,308.901326 C268.421327,311.363992 276.72266,307.310659 279.533326,299.699993 L279.533326,299.699993 L307.699992,223.466661 C310.674659,215.417328 304.467992,207.486661 296.649326,207.485328 L296.649326,207.485328 C295.406659,207.485328 294.125326,207.685328 292.830659,208.117328 M913.053311,139.91733 L840.094646,278.51866 C836.467979,285.40666 841.330646,293.709326 849.113312,293.915993 L849.113312,293.915993 L860.802645,294.226659 C864.990645,294.337326 869.038645,292.711993 871.986645,289.735993 L871.986645,289.735993 L970.049309,190.751995 C975.909309,184.837329 975.909309,175.303996 970.047976,169.389329 L970.047976,169.389329 L937.263977,136.303997 C934.24931,133.262663 930.36131,131.807997 926.50931,131.807997 L926.50931,131.807997 C921.138644,131.807997 915.835977,134.63333 913.053311,139.91733 M369.342657,165.479996 L350.362658,184.627995 C348.835991,186.167995 347.657325,188.017329 346.905325,190.051995 L346.905325,190.051995 L316.065325,273.521326 C311.470659,285.955993 323.909325,297.893326 336.145325,292.787993 L336.145325,292.787993 L419.88399,257.85466 C428.002656,254.469327 431.550656,244.911994 427.609323,237.047994 L427.609323,237.047994 L393.689323,169.363996 C390.958657,163.917329 385.561324,160.986663 380.09199,160.985329 L380.09199,160.985329 C376.243991,160.985329 372.359991,162.435996 369.342657,165.479996 M751.239981,113.66933 L737.154648,127.883997 C733.770648,131.299997 732.205315,136.115997 732.934648,140.867996 L732.934648,140.867996 L754.122648,278.913326 C755.237314,286.169326 761.383981,291.587993 768.722647,291.782659 L768.722647,291.782659 L794.718647,292.471993 C800.494647,292.625326 805.857313,289.483993 808.549313,284.37066 L808.549313,284.37066 L842.667979,219.555995 C845.419979,214.327995 844.889312,207.979995 841.305312,203.282662 L841.305312,203.282662 L774.087981,115.14933 C771.075981,111.198664 766.554648,109.174664 762.011981,109.174664 L762.011981,109.174664 C758.127981,109.174664 754.229314,110.653331 751.239981,113.66933 M58.4839985,145.639996 L34.9106658,169.427996 C29.0479993,175.343996 29.0479993,184.878662 34.9106658,190.794662 L34.9106658,190.794662 L99.1613309,255.635994 C100.885331,257.37466 103.002664,258.67066 105.335997,259.413327 L105.335997,259.413327 L157.109329,275.90666 C166.753329,278.977326 176.645329,271.927993 176.887996,261.81066 L176.887996,261.81066 L178.106662,211.129328 C178.239996,205.593328 175.347996,200.425328 170.561329,197.642662 L170.561329,197.642662 L76.8906647,143.20133 C74.5119981,141.818663 71.8813315,141.14533 69.2693316,141.14533 L69.2693316,141.14533 C65.318665,141.14533 61.4119985,142.683996 58.4839985,145.639996 M688.501316,176.985329 L676.73465,188.861329 C676.733316,188.862662 676.731983,188.862662 676.73065,188.863995 L676.73065,188.863995 L639.017317,227.798661 C631.410651,235.651994 634.351984,248.727994 644.589317,252.567994 L644.589317,252.567994 L705.222649,275.311993 C716.082649,279.387993 727.314648,270.26666 725.554649,258.799994 L725.554649,258.799994 L714.282649,185.365329 C713.053316,177.354662 706.233316,172.475996 699.201316,172.474662 L699.201316,172.474662 C695.415983,172.474662 691.570649,173.887996 688.501316,176.985329 M515.22532,151.215996 L445.705322,181.074662 C437.679989,184.521329 434.213322,194.011995 438.125322,201.819995 L438.125322,201.819995 L451.854655,229.213328 C455.426655,236.341327 463.906655,239.490661 471.266655,236.419994 L471.266655,236.419994 L514.602654,218.341328 C519.29332,216.383995 522.69332,212.209328 523.659987,207.219995 L523.659987,207.219995 L531.898653,164.649329 C533.414653,156.817329 527.23332,150.210663 520.030654,150.210663 L520.030654,150.210663 C518.454654,150.210663 516.82932,150.526663 515.22532,151.215996 M564.718653,127.65333 L550.019986,203.587995 C548.611986,210.858661 552.655986,218.082661 559.590653,220.682661 L559.590653,220.682661 L587.874652,231.293328 C593.530652,233.414661 599.905318,231.979994 604.107985,227.642661 L604.107985,227.642661 L639.803984,190.787995 C645.553317,184.853329 645.497317,175.409329 639.678651,169.541329 L639.678651,169.541329 L590.394652,119.850664 C587.333319,116.762664 583.482652,115.346664 579.693319,115.346664 L579.693319,115.346664 C572.854652,115.346664 566.209319,119.951997 564.718653,127.65333 M206.263995,88.2639978 L203.823995,189.843995 C203.570662,200.357328 213.826661,207.933328 223.801328,204.605328 L223.801328,204.605328 L290.802659,182.239995 C301.471992,178.677329 304.694659,165.151996 296.777326,157.161329 L296.777326,157.161329 L222.219994,81.919998 C220.318661,80.0026647 217.966661,79.1413314 215.657328,79.139998 L215.657328,79.139998 C210.937328,79.139998 206.397328,82.7413313 206.263995,88.2639978 M822.253313,42.0026656 L790.709314,73.8373315 C785.37998,79.215998 784.829314,87.7026645 789.422647,93.7226643 L789.422647,93.7226643 L845.694646,167.505329 C852.419979,176.323996 866.025312,175.183996 871.191978,165.369329 L871.191978,165.369329 L898.922644,112.690664 C902.007977,106.830664 900.934644,99.6439975 896.273311,94.9386643 L896.273311,94.9386643 L843.814646,42.0013323 C840.845312,39.0053324 836.939979,37.5066657 833.034646,37.5066657 L833.034646,37.5066657 C829.127979,37.5066657 825.222646,39.0053324 822.253313,42.0026656 M164.705329,38.4466657 L98.8813309,104.871997 C91.889331,111.926664 93.4479977,123.686664 102.034664,128.67733 L102.034664,128.67733 L156.830663,160.523996 C166.807996,166.323996 179.351996,159.306663 179.630662,147.767996 L179.630662,147.767996 L182.079995,45.8413322 C182.145329,43.0786656 181.085329,40.4093323 179.139996,38.4466657 L179.139996,38.4466657 C177.151996,36.4413324 174.537329,35.4386658 171.922662,35.4386658 L171.922662,35.4386658 C169.307996,35.4386658 166.693329,36.4413324 164.705329,38.4466657 M491.685321,42.0586656 L410.605323,123.854664 C406.018657,128.48133 404.897323,135.514663 407.814656,141.338663 L407.814656,141.338663 L413.19599,152.074663 C416.79599,159.259996 425.370656,162.391996 432.753323,159.219996 L432.753323,159.219996 L534.651987,115.454664 C539.270653,113.470664 542.607986,109.329331 543.562653,104.393331 L543.562653,104.393331 L547.182653,85.6919979 C548.13732,80.763998 546.59332,75.6853314 543.058653,72.1213315 L543.058653,72.1213315 L513.239987,42.0559989 C510.271987,39.0626657 506.367987,37.5666657 502.465321,37.5666657 L502.465321,37.5666657 C498.559988,37.5666657 494.654654,39.063999 491.685321,42.0586656" id="path-1"></path>
    </defs>
    <g id="Page-1" stroke="none" stroke-width="1" fill="none" fill-rule="evenodd">
        <g id="1-Configuration-Gradient-Positive-Option-(1)" transform="translate(-1.000000, -1.000000)">
            <g id="g10" transform="translate(503.666664, 264.166671) scale(-1, 1) rotate(-180.000000) translate(-503.666664, -264.166671) translate(0.666664, 0.666671)">
                <g id="g34" transform="translate(0.333333, -0.000008)">
                    <g id="g36-Clipped">
                        <mask id="mask-2" fill="white">
                            <use xlink:href="#path-1"></use>
                        </mask>
                        <use id="path38" fill="#412361" xlink:href="#path-1"></use>
                        <g id="g36" mask="url(#mask-2)" fill-rule="nonzero">
                            <g id="g42">
                                <g id="g44">
                                    <path d="M658.801317,522.655987 L513.273321,375.797324 C507.335987,369.806657 497.653321,369.805324 491.714654,375.795991 L491.714654,375.795991 L346.154658,522.626654 C341.415991,527.39732 332.985325,527.394653 328.262658,522.62132 L328.262658,522.62132 L8.23599979,199.658662 C-2.48933327,188.833329 -2.48933327,171.387996 8.23599979,160.563996 L8.23599979,160.563996 L162.977329,4.40799989 C167.699996,-0.365333349 176.145329,-0.365333349 180.869329,4.40799989 L180.869329,4.40799989 L326.397325,151.26933 C332.334658,157.258663 342.017325,157.259996 347.957325,151.26933 L347.957325,151.26933 L493.515988,4.43199989 C495.885321,2.04533328 499.099988,0.705333316 502.461321,0.705333316 L502.461321,0.705333316 C505.823987,0.705333316 509.037321,2.04533328 511.407987,4.43199989 L511.407987,4.43199989 L657.00665,151.238663 C662.945317,157.226663 672.629317,157.223996 678.565316,151.231996 L678.565316,151.231996 L824.087979,4.36533322 C826.449313,1.97999995 829.671979,0.634666651 833.034646,0.634666651 L833.034646,0.634666651 C836.395979,0.634666651 839.618646,1.97999995 841.979979,4.36533322 L841.979979,4.36533322 L996.722642,160.523996 C1007.44664,171.346662 1007.44797,188.791995 996.725308,199.615995 L996.725308,199.615995 L676.69465,522.655987 C674.333316,525.04132 671.109317,526.386654 667.74665,526.386654 L667.74665,526.386654 C664.385317,526.386654 661.16265,525.04132 658.801317,522.655987 M612.031985,370.022657 L598.245318,414.310656 C596.575985,419.67199 598.003985,425.517323 601.957318,429.503989 L601.957318,429.503989 L656.96665,485.013321 C662.905317,491.006654 672.59065,491.006654 678.527983,485.011988 L678.527983,485.011988 L683.477316,480.018655 C685.34665,478.130655 686.687983,475.785321 687.366649,473.215988 L687.366649,473.215988 L697.885316,433.430656 C699.287983,428.127989 697.719983,422.479989 693.782649,418.65999 L693.782649,418.65999 L637.093317,363.642658 C634.073317,360.710658 630.298651,359.347991 626.574651,359.347991 L626.574651,359.347991 C620.286651,359.347991 614.143985,363.235991 612.031985,370.022657 M379.187991,302.121326 L306.563992,332.418658 C300.250659,335.051992 296.478659,341.583991 297.354659,348.367991 L297.354659,348.367991 L312.605326,466.605322 C313.030659,469.907988 314.531992,472.979988 316.875992,475.346655 L316.875992,475.346655 L326.429325,484.989321 C332.367992,490.979988 342.051991,490.981321 347.989325,484.990655 L347.989325,484.990655 L360.173324,472.701322 C362.113324,470.743988 363.483991,468.295988 364.137324,465.617322 L364.137324,465.617322 L399.774657,319.730659 C402.221323,309.715992 394.369323,300.921326 385.073324,300.921326 L385.073324,300.921326 C383.146657,300.921326 381.15999,301.298659 379.187991,302.121326 M164.294663,321.366659 L263.183993,421.161323 C269.943993,427.982656 281.501326,422.334656 280.273326,412.810656 L280.273326,412.810656 L271.927993,348.107991 C271.173327,342.259991 267.101327,337.378658 261.48266,335.587992 L261.48266,335.587992 L172.865329,307.361326 C171.935996,307.063992 171.029329,306.927992 170.163996,306.927992 L170.163996,306.927992 C163.189329,306.926659 158.761329,315.779992 164.294663,321.366659 M751.755981,328.223992 L732.741315,400.145323 C729.766648,411.394656 743.613315,419.31599 751.803981,411.049323 L751.803981,411.049323 L818.350646,343.877325 C827.706646,334.433325 821.261313,318.377325 807.970646,318.023992 L807.970646,318.023992 L766.830647,316.930659 C766.695981,316.927992 766.561314,316.925325 766.426648,316.925325 L766.426648,316.925325 C759.557314,316.925325 753.519981,321.550659 751.755981,328.223992 M463.589322,266.913327 L442.850656,275.563993 C438.398656,277.42266 435.094656,281.285326 433.949322,285.969326 L433.949322,285.969326 L407.34399,394.89199 C404.585323,406.177323 418.434656,413.929323 426.613323,405.67999 L426.613323,405.67999 L484.589321,347.198658 C487.697321,344.059991 489.287988,339.725325 488.941321,335.321325 L488.941321,335.321325 L484.561321,279.729326 C483.915988,271.523993 477.029321,265.73199 469.435988,265.73199 L469.435988,265.73199 C467.501322,265.73199 465.522655,266.10666 463.589322,266.913327 M527.895987,240.086661 L517.527987,244.411994 C511.470654,246.93866 507.725321,253.069327 508.241321,259.61066 L508.241321,259.61066 L514.250654,335.897325 C514.531987,339.475992 516.07332,342.838658 518.598654,345.389325 L518.598654,345.389325 L557.683986,384.82799 C565.739986,392.958657 579.553319,389.585324 582.954652,378.655991 L582.954652,378.655991 L612.786651,282.821326 C615.177318,275.139993 611.158651,266.925327 603.626652,264.101327 L603.626652,264.101327 L539.06932,239.883994 C537.34932,239.238661 535.542653,238.915994 533.73732,238.915994 L533.73732,238.915994 C531.74932,238.915994 529.762653,239.306661 527.895987,240.086661 M635.901317,293.342659 L630.535984,310.578659 C628.835984,316.039992 630.351984,321.994659 634.457317,325.979992 L634.457317,325.979992 L696.326649,386.025324 C701.343982,390.89599 709.747982,388.561324 711.534649,381.801324 L711.534649,381.801324 L726.601315,324.815992 C728.593315,317.282659 724.554649,309.465326 717.257315,306.727992 L717.257315,306.727992 L655.72265,283.64266 C653.963984,282.98266 652.16265,282.67066 650.393317,282.67066 L650.393317,282.67066 C643.950651,282.67066 637.934651,286.807993 635.901317,293.342659 M292.830659,208.117328 L212.771995,234.841327 C206.703995,236.866661 202.557328,242.478661 202.403995,248.873327 L202.403995,248.873327 L201.689328,278.64666 C201.526662,285.38666 205.830662,291.426659 212.254661,293.471993 L212.254661,293.471993 L260.691993,308.901326 C268.421327,311.363992 276.72266,307.310659 279.533326,299.699993 L279.533326,299.699993 L307.699992,223.466661 C310.674659,215.417328 304.467992,207.486661 296.649326,207.485328 L296.649326,207.485328 C295.406659,207.485328 294.125326,207.685328 292.830659,208.117328 M913.053311,139.91733 L840.094646,278.51866 C836.467979,285.40666 841.330646,293.709326 849.113312,293.915993 L849.113312,293.915993 L860.802645,294.226659 C864.990645,294.337326 869.038645,292.711993 871.986645,289.735993 L871.986645,289.735993 L970.049309,190.751995 C975.909309,184.837329 975.909309,175.303996 970.047976,169.389329 L970.047976,169.389329 L937.263977,136.303997 C934.24931,133.262663 930.36131,131.807997 926.50931,131.807997 L926.50931,131.807997 C921.138644,131.807997 915.835977,134.63333 913.053311,139.91733 M369.342657,165.479996 L350.362658,184.627995 C348.835991,186.167995 347.657325,188.017329 346.905325,190.051995 L346.905325,190.051995 L316.065325,273.521326 C311.470659,285.955993 323.909325,297.893326 336.145325,292.787993 L336.145325,292.787993 L419.88399,257.85466 C428.002656,254.469327 431.550656,244.911994 427.609323,237.047994 L427.609323,237.047994 L393.689323,169.363996 C390.958657,163.917329 385.561324,160.986663 380.09199,160.985329 L380.09199,160.985329 C376.243991,160.985329 372.359991,162.435996 369.342657,165.479996 M751.239981,113.66933 L737.154648,127.883997 C733.770648,131.299997 732.205315,136.115997 732.934648,140.867996 L732.934648,140.867996 L754.122648,278.913326 C755.237314,286.169326 761.383981,291.587993 768.722647,291.782659 L768.722647,291.782659 L794.718647,292.471993 C800.494647,292.625326 805.857313,289.483993 808.549313,284.37066 L808.549313,284.37066 L842.667979,219.555995 C845.419979,214.327995 844.889312,207.979995 841.305312,203.282662 L841.305312,203.282662 L774.087981,115.14933 C771.075981,111.198664 766.554648,109.174664 762.011981,109.174664 L762.011981,109.174664 C758.127981,109.174664 754.229314,110.653331 751.239981,113.66933 M58.4839985,145.639996 L34.9106658,169.427996 C29.0479993,175.343996 29.0479993,184.878662 34.9106658,190.794662 L34.9106658,190.794662 L99.1613309,255.635994 C100.885331,257.37466 103.002664,258.67066 105.335997,259.413327 L105.335997,259.413327 L157.109329,275.90666 C166.753329,278.977326 176.645329,271.927993 176.887996,261.81066 L176.887996,261.81066 L178.106662,211.129328 C178.239996,205.593328 175.347996,200.425328 170.561329,197.642662 L170.561329,197.642662 L76.8906647,143.20133 C74.5119981,141.818663 71.8813315,141.14533 69.2693316,141.14533 L69.2693316,141.14533 C65.318665,141.14533 61.4119985,142.683996 58.4839985,145.639996 M688.501316,176.985329 L676.73465,188.861329 C676.733316,188.862662 676.731983,188.862662 676.73065,188.863995 L676.73065,188.863995 L639.017317,227.798661 C631.410651,235.651994 634.351984,248.727994 644.589317,252.567994 L644.589317,252.567994 L705.222649,275.311993 C716.082649,279.387993 727.314648,270.26666 725.554649,258.799994 L725.554649,258.799994 L714.282649,185.365329 C713.053316,177.354662 706.233316,172.475996 699.201316,172.474662 L699.201316,172.474662 C695.415983,172.474662 691.570649,173.887996 688.501316,176.985329 M515.22532,151.215996 L445.705322,181.074662 C437.679989,184.521329 434.213322,194.011995 438.125322,201.819995 L438.125322,201.819995 L451.854655,229.213328 C455.426655,236.341327 463.906655,239.490661 471.266655,236.419994 L471.266655,236.419994 L514.602654,218.341328 C519.29332,216.383995 522.69332,212.209328 523.659987,207.219995 L523.659987,207.219995 L531.898653,164.649329 C533.414653,156.817329 527.23332,150.210663 520.030654,150.210663 L520.030654,150.210663 C518.454654,150.210663 516.82932,150.526663 515.22532,151.215996 M564.718653,127.65333 L550.019986,203.587995 C548.611986,210.858661 552.655986,218.082661 559.590653,220.682661 L559.590653,220.682661 L587.874652,231.293328 C593.530652,233.414661 599.905318,231.979994 604.107985,227.642661 L604.107985,227.642661 L639.803984,190.787995 C645.553317,184.853329 645.497317,175.409329 639.678651,169.541329 L639.678651,169.541329 L590.394652,119.850664 C587.333319,116.762664 583.482652,115.346664 579.693319,115.346664 L579.693319,115.346664 C572.854652,115.346664 566.209319,119.951997 564.718653,127.65333 M206.263995,88.2639978 L203.823995,189.843995 C203.570662,200.357328 213.826661,207.933328 223.801328,204.605328 L223.801328,204.605328 L290.802659,182.239995 C301.471992,178.677329 304.694659,165.151996 296.777326,157.161329 L296.777326,157.161329 L222.219994,81.919998 C220.318661,80.0026647 217.966661,79.1413314 215.657328,79.139998 L215.657328,79.139998 C210.937328,79.139998 206.397328,82.7413313 206.263995,88.2639978 M822.253313,42.0026656 L790.709314,73.8373315 C785.37998,79.215998 784.829314,87.7026645 789.422647,93.7226643 L789.422647,93.7226643 L845.694646,167.505329 C852.419979,176.323996 866.025312,175.183996 871.191978,165.369329 L871.191978,165.369329 L898.922644,112.690664 C902.007977,106.830664 900.934644,99.6439975 896.273311,94.9386643 L896.273311,94.9386643 L843.814646,42.0013323 C840.845312,39.0053324 836.939979,37.5066657 833.034646,37.5066657 L833.034646,37.5066657 C829.127979,37.5066657 825.222646,39.0053324 822.253313,42.0026656 M164.705329,38.4466657 L98.8813309,104.871997 C91.889331,111.926664 93.4479977,123.686664 102.034664,128.67733 L102.034664,128.67733 L156.830663,160.523996 C166.807996,166.323996 179.351996,159.306663 179.630662,147.767996 L179.630662,147.767996 L182.079995,45.8413322 C182.145329,43.0786656 181.085329,40.4093323 179.139996,38.4466657 L179.139996,38.4466657 C177.151996,36.4413324 174.537329,35.4386658 171.922662,35.4386658 L171.922662,35.4386658 C169.307996,35.4386658 166.693329,36.4413324 164.705329,38.4466657 M491.685321,42.0586656 L410.605323,123.854664 C406.018657,128.48133 404.897323,135.514663 407.814656,141.338663 L407.814656,141.338663 L413.19599,152.074663 C416.79599,159.259996 425.370656,162.391996 432.753323,159.219996 L432.753323,159.219996 L534.651987,115.454664 C539.270653,113.470664 542.607986,109.329331 543.562653,104.393331 L543.562653,104.393331 L547.182653,85.6919979 C548.13732,80.763998 546.59332,75.6853314 543.058653,72.1213315 L543.058653,72.1213315 L513.239987,42.0559989 C510.271987,39.0626657 506.367987,37.5666657 502.465321,37.5666657 L502.465321,37.5666657 C498.559988,37.5666657 494.654654,39.063999 491.685321,42.0586656" id="path54"></path>
                                </g>
                            </g>
                        </g>
                    </g>
                </g>
            </g>
        </g>
    </g>
</svg>