<svg xmlns="http://www.w3.org/2000/svg" width="50" height="26" fill="none" viewBox="0 0 50 26"><mask id="mask0" width="50" height="26" x="0" y="0" mask-type="alpha" maskUnits="userSpaceOnUse"><path fill="#fff" d="M32.7762 0.197871L25.536 7.44327C25.2406 7.73883 24.7589 7.73889 24.4634 7.44334L17.2216 0.199319C16.9859 -0.0360455 16.5664 -0.0359151 16.3315 0.199581L0.409736 16.1332C-0.123863 16.6673 -0.123863 17.528 0.409736 18.062L8.10831 25.7661C8.34327 26.0016 8.76343 26.0016 8.99846 25.7661L16.2387 18.5206C16.534 18.2251 17.0158 18.225 17.3113 18.5206L24.553 25.7649C24.6709 25.8827 24.8308 25.9488 24.9981 25.9488C25.1654 25.9488 25.3252 25.8827 25.4432 25.7649L32.6869 18.5221C32.9823 18.2266 33.4641 18.2268 33.7595 18.5224L40.9994 25.7682C41.1169 25.8859 41.2772 25.9522 41.4445 25.9522C41.6117 25.9522 41.7721 25.8859 41.8895 25.7682L49.5882 18.064C50.1217 17.53 50.1218 16.6693 49.5883 16.1353L33.6664 0.197871C33.5489 0.0801886 33.3885 0.0138161 33.2212 0.0138161C33.054 0.0138161 32.8937 0.0801886 32.7762 0.197871ZM30.4493 7.72817L29.7634 5.54318C29.6804 5.27868 29.7514 4.99029 29.9481 4.79361L32.6849 2.05501C32.9804 1.75932 33.4622 1.75932 33.7576 2.05507L34.0038 2.30142C34.0968 2.39457 34.1636 2.51028 34.1973 2.63704L34.7206 4.59988C34.7904 4.86149 34.7124 5.14014 34.5165 5.32861L31.6962 8.04293C31.5459 8.18759 31.3581 8.25482 31.1729 8.25482C30.86 8.25482 30.5544 8.063 30.4493 7.72817ZM18.8651 11.0781L15.2519 9.5834C14.9378 9.45348 14.7502 9.13122 14.7937 8.79652L15.5525 2.96318C15.5737 2.80024 15.6483 2.64868 15.765 2.53192L16.2403 2.05619C16.5357 1.76064 17.0175 1.76057 17.3129 2.05612L17.9191 2.66243C18.0156 2.759 18.0838 2.87977 18.1163 3.01193L19.8893 10.2094C20.011 10.7035 19.6204 11.1373 19.1579 11.1373C19.062 11.1373 18.9632 11.1187 18.8651 11.0781ZM8.17385 10.1287L13.0937 5.2052C13.43 4.86866 14.005 5.14731 13.9439 5.61719L13.5287 8.80935C13.4912 9.09787 13.2886 9.33869 13.0091 9.42704L8.60025 10.8196C8.55401 10.8343 8.50891 10.841 8.46586 10.841C8.11886 10.8411 7.89856 10.4043 8.17385 10.1287ZM37.4008 9.79034L36.4548 6.24204C36.3068 5.68705 36.9957 5.29624 37.4032 5.70409L40.7139 9.01807C41.1794 9.484 40.8588 10.2761 40.1975 10.2936L38.1508 10.3475C38.1441 10.3476 38.1374 10.3478 38.1307 10.3478C37.7889 10.3478 37.4885 10.1196 37.4008 9.79034ZM23.0641 12.8152L22.0324 12.3884C21.8109 12.2967 21.6465 12.1061 21.5895 11.875L20.2659 6.50122C20.1286 5.94445 20.8176 5.562 21.2245 5.96899L24.1089 8.85421C24.2635 9.00906 24.3427 9.22292 24.3254 9.44019L24.1075 12.1829C24.0754 12.5877 23.7328 12.8734 23.355 12.8734C23.2588 12.8734 23.1603 12.855 23.0641 12.8152ZM26.2635 14.1387L25.7476 13.9253C25.4463 13.8006 25.26 13.4982 25.2856 13.1754L25.5846 9.41177C25.5986 9.23522 25.6753 9.06932 25.8009 8.94348L27.7455 6.99774C28.1463 6.5966 28.8335 6.76303 29.0027 7.30224L30.4869 12.0303C30.6058 12.4093 30.4059 12.8146 30.0312 12.9539L26.8194 14.1487C26.7338 14.1805 26.6439 14.1964 26.5541 14.1964C26.4552 14.1964 26.3563 14.1772 26.2635 14.1387ZM31.6369 11.5112L31.3699 10.6609C31.2854 10.3915 31.3608 10.0977 31.565 9.90105L34.6431 6.93867C34.8927 6.69837 35.3108 6.81355 35.3997 7.14706L36.1493 9.95848C36.2484 10.3301 36.0475 10.7158 35.6844 10.8509L32.623 11.9898C32.5355 12.0224 32.4459 12.0378 32.3579 12.0378C32.0373 12.0378 31.738 11.8336 31.6369 11.5112ZM14.5687 15.7159L10.5857 14.3975C10.2838 14.2975 10.0775 14.0207 10.0698 13.7052L10.0343 12.2363C10.0262 11.9038 10.2403 11.6058 10.5599 11.5049L12.9697 10.7436C13.3543 10.6221 13.7673 10.8221 13.9071 11.1976L15.3084 14.9586C15.4564 15.3558 15.1476 15.747 14.7587 15.7471C14.6968 15.7471 14.6331 15.7372 14.5687 15.7159ZM45.4255 19.0806L41.7957 12.2426C41.6153 11.9028 41.8572 11.4932 42.2444 11.483L42.826 11.4676C43.0343 11.4622 43.2357 11.5424 43.3824 11.6892L48.2611 16.5726C48.5527 16.8644 48.5527 17.3348 48.2611 17.6266L46.63 19.2589C46.4801 19.4089 46.2866 19.4807 46.095 19.4807C45.8278 19.4807 45.564 19.3413 45.4255 19.0806ZM18.3752 17.8195L17.431 16.8748C17.355 16.7988 17.2964 16.7076 17.259 16.6072L15.7246 12.4891C15.496 11.8757 16.1149 11.2867 16.7236 11.5386L20.8897 13.2621C21.2937 13.4291 21.4702 13.9006 21.2741 14.2886L19.5865 17.6278C19.4507 17.8966 19.1821 18.0411 18.91 18.0412C18.7186 18.0412 18.5254 17.9696 18.3752 17.8195ZM37.3751 20.3756L36.6743 19.6743C36.506 19.5058 36.4281 19.2682 36.4644 19.0337L37.5185 12.2231C37.574 11.8651 37.8798 11.5978 38.2449 11.5882L39.5382 11.5542C39.8256 11.5466 40.0924 11.7016 40.2263 11.9539L41.9238 15.1516C42.0607 15.4095 42.0343 15.7227 41.856 15.9544L38.5118 20.3026C38.362 20.4975 38.137 20.5973 37.911 20.5973C37.7178 20.5973 37.5238 20.5244 37.3751 20.3756ZM2.90964 18.7983L1.73683 17.6247C1.44516 17.3328 1.44516 16.8624 1.73683 16.5705L4.93338 13.3715C5.01916 13.2858 5.1245 13.2218 5.24058 13.1852L7.81637 12.3715C8.29617 12.22 8.78831 12.5678 8.80038 13.0669L8.86101 15.5673C8.86765 15.8404 8.72377 16.0954 8.48562 16.2327L3.82539 18.9186C3.70705 18.9868 3.57617 19.02 3.44622 19.02C3.24967 19.02 3.05531 18.9441 2.90964 18.7983ZM34.2538 17.2518L33.6684 16.6659C33.6683 16.6659 33.6682 16.6659 33.6682 16.6658L31.7919 14.7449C31.4135 14.3575 31.5598 13.7123 32.0691 13.5229L35.0857 12.4008C35.626 12.1997 36.1848 12.6497 36.0972 13.2154L35.5364 16.8384C35.4753 17.2336 35.136 17.4743 34.7861 17.4744C34.5978 17.4744 34.4065 17.4046 34.2538 17.2518ZM25.6331 18.5232L22.1744 17.0501C21.7751 16.88 21.6026 16.4118 21.7973 16.0266L22.4803 14.6751C22.658 14.3235 23.0799 14.1681 23.4461 14.3196L25.6021 15.2115C25.8355 15.3081 26.0046 15.514 26.0527 15.7602L26.4626 17.8604C26.538 18.2468 26.2305 18.5728 25.8722 18.5728C25.7937 18.5728 25.7129 18.5572 25.6331 18.5232ZM28.0954 19.6857L27.3642 15.9394C27.2941 15.5807 27.4953 15.2243 27.8403 15.096L29.2475 14.5725C29.5289 14.4678 29.846 14.5386 30.0551 14.7526L31.831 16.5709C32.1171 16.8637 32.1143 17.3296 31.8248 17.6191L29.3729 20.0706C29.2205 20.223 29.029 20.2928 28.8404 20.2928C28.5002 20.2928 28.1696 20.0656 28.0954 19.6857ZM10.2619 21.629L10.1405 16.6174C10.1279 16.0988 10.6381 15.725 11.1344 15.8892L14.4678 16.9926C14.9986 17.1684 15.1589 17.8356 14.765 18.2299L11.0557 21.942C10.9611 22.0366 10.8441 22.0791 10.7292 22.0791C10.4944 22.0791 10.2685 21.9014 10.2619 21.629ZM40.9081 23.9113L39.3388 22.3407C39.0736 22.0754 39.0462 21.6567 39.2747 21.3597L42.0743 17.7195C42.4089 17.2845 43.0858 17.3407 43.3429 17.8249L44.7225 20.4239C44.876 20.713 44.8226 21.0675 44.5907 21.2997L41.9808 23.9114C41.8331 24.0592 41.6388 24.1331 41.4445 24.1331C41.2501 24.1331 41.0558 24.0592 40.9081 23.9113ZM8.19428 24.0868L4.91945 20.8096C4.57159 20.4616 4.64914 19.8814 5.07634 19.6352L7.80251 18.064C8.29889 17.7778 8.92297 18.124 8.93683 18.6933L9.05869 23.7219C9.06194 23.8582 9.00921 23.9899 8.91242 24.0868C8.81352 24.1857 8.68343 24.2352 8.55335 24.2352C8.42327 24.2352 8.29319 24.1857 8.19428 24.0868ZM24.4619 23.9086L20.4281 19.8731C20.1999 19.6448 20.1441 19.2978 20.2893 19.0105L20.557 18.4808C20.7361 18.1263 21.1627 17.9718 21.53 18.1283L26.5996 20.2875C26.8294 20.3854 26.9954 20.5897 27.0429 20.8332L27.223 21.7559C27.2705 21.999 27.1937 22.2496 27.0178 22.4254L25.5343 23.9087C25.3867 24.0564 25.1924 24.1302 24.9983 24.1302C24.804 24.1302 24.6097 24.0563 24.4619 23.9086Z"/></mask><g mask="url(#mask0)"><path fill="#421666" d="M32.7762 0.197871L25.536 7.44327C25.2406 7.73883 24.7589 7.73889 24.4634 7.44334L17.2216 0.199319C16.9859 -0.0360455 16.5664 -0.0359151 16.3315 0.199581L0.409736 16.1332C-0.123863 16.6673 -0.123863 17.528 0.409736 18.062L8.10831 25.7661C8.34327 26.0016 8.76343 26.0016 8.99846 25.7661L16.2387 18.5206C16.534 18.2251 17.0158 18.225 17.3113 18.5206L24.553 25.7649C24.6709 25.8827 24.8308 25.9488 24.9981 25.9488C25.1654 25.9488 25.3252 25.8827 25.4432 25.7649L32.6869 18.5221C32.9823 18.2266 33.4641 18.2268 33.7595 18.5224L40.9994 25.7682C41.1169 25.8859 41.2772 25.9522 41.4445 25.9522C41.6117 25.9522 41.7721 25.8859 41.8895 25.7682L49.5882 18.064C50.1217 17.53 50.1218 16.6693 49.5883 16.1353L33.6664 0.197871C33.5489 0.0801886 33.3885 0.0138161 33.2212 0.0138161C33.054 0.0138161 32.8937 0.0801886 32.7762 0.197871ZM30.4493 7.72817L29.7634 5.54318C29.6804 5.27868 29.7514 4.99029 29.9481 4.79361L32.6849 2.05501C32.9804 1.75932 33.4622 1.75932 33.7576 2.05507L34.0038 2.30142C34.0968 2.39457 34.1636 2.51028 34.1973 2.63704L34.7206 4.59988C34.7904 4.86149 34.7124 5.14014 34.5165 5.32861L31.6962 8.04293C31.5459 8.18759 31.3581 8.25482 31.1729 8.25482C30.86 8.25482 30.5544 8.063 30.4493 7.72817ZM18.8651 11.0781L15.2519 9.5834C14.9378 9.45348 14.7502 9.13122 14.7937 8.79652L15.5525 2.96318C15.5737 2.80024 15.6483 2.64868 15.765 2.53192L16.2403 2.05619C16.5357 1.76064 17.0175 1.76057 17.3129 2.05612L17.9191 2.66243C18.0156 2.759 18.0838 2.87977 18.1163 3.01193L19.8893 10.2094C20.011 10.7035 19.6204 11.1373 19.1579 11.1373C19.062 11.1373 18.9632 11.1187 18.8651 11.0781ZM8.17385 10.1287L13.0937 5.2052C13.43 4.86866 14.005 5.14731 13.9439 5.61719L13.5287 8.80935C13.4912 9.09787 13.2886 9.33869 13.0091 9.42704L8.60025 10.8196C8.55401 10.8343 8.50891 10.841 8.46586 10.841C8.11886 10.8411 7.89856 10.4043 8.17385 10.1287ZM37.4008 9.79034L36.4548 6.24204C36.3068 5.68705 36.9957 5.29624 37.4032 5.70409L40.7139 9.01807C41.1794 9.484 40.8588 10.2761 40.1975 10.2936L38.1508 10.3475C38.1441 10.3476 38.1374 10.3478 38.1307 10.3478C37.7889 10.3478 37.4885 10.1196 37.4008 9.79034ZM23.0641 12.8152L22.0324 12.3884C21.8109 12.2967 21.6465 12.1061 21.5895 11.875L20.2659 6.50122C20.1286 5.94445 20.8176 5.562 21.2245 5.96899L24.1089 8.85421C24.2635 9.00906 24.3427 9.22292 24.3254 9.44019L24.1075 12.1829C24.0754 12.5877 23.7328 12.8734 23.355 12.8734C23.2588 12.8734 23.1603 12.855 23.0641 12.8152ZM26.2635 14.1387L25.7476 13.9253C25.4463 13.8006 25.26 13.4982 25.2856 13.1754L25.5846 9.41177C25.5986 9.23522 25.6753 9.06932 25.8009 8.94348L27.7455 6.99774C28.1463 6.5966 28.8335 6.76303 29.0027 7.30224L30.4869 12.0303C30.6058 12.4093 30.4059 12.8146 30.0312 12.9539L26.8194 14.1487C26.7338 14.1805 26.6439 14.1964 26.5541 14.1964C26.4552 14.1964 26.3563 14.1772 26.2635 14.1387ZM31.6369 11.5112L31.3699 10.6609C31.2854 10.3915 31.3608 10.0977 31.565 9.90105L34.6431 6.93867C34.8927 6.69837 35.3108 6.81355 35.3997 7.14706L36.1493 9.95848C36.2484 10.3301 36.0475 10.7158 35.6844 10.8509L32.623 11.9898C32.5355 12.0224 32.4459 12.0378 32.3579 12.0378C32.0373 12.0378 31.738 11.8336 31.6369 11.5112ZM14.5687 15.7159L10.5857 14.3975C10.2838 14.2975 10.0775 14.0207 10.0698 13.7052L10.0343 12.2363C10.0262 11.9038 10.2403 11.6058 10.5599 11.5049L12.9697 10.7436C13.3543 10.6221 13.7673 10.8221 13.9071 11.1976L15.3084 14.9586C15.4564 15.3558 15.1476 15.747 14.7587 15.7471C14.6968 15.7471 14.6331 15.7372 14.5687 15.7159ZM45.4255 19.0806L41.7957 12.2426C41.6153 11.9028 41.8572 11.4932 42.2444 11.483L42.826 11.4676C43.0343 11.4622 43.2357 11.5424 43.3824 11.6892L48.2611 16.5726C48.5527 16.8644 48.5527 17.3348 48.2611 17.6266L46.63 19.2589C46.4801 19.4089 46.2866 19.4807 46.095 19.4807C45.8278 19.4807 45.564 19.3413 45.4255 19.0806ZM18.3752 17.8195L17.431 16.8748C17.355 16.7988 17.2964 16.7076 17.259 16.6072L15.7246 12.4891C15.496 11.8757 16.1149 11.2867 16.7236 11.5386L20.8897 13.2621C21.2937 13.4291 21.4702 13.9006 21.2741 14.2886L19.5865 17.6278C19.4507 17.8966 19.1821 18.0411 18.91 18.0412C18.7186 18.0412 18.5254 17.9696 18.3752 17.8195ZM37.3751 20.3756L36.6743 19.6743C36.506 19.5058 36.4281 19.2682 36.4644 19.0337L37.5185 12.2231C37.574 11.8651 37.8798 11.5978 38.2449 11.5882L39.5382 11.5542C39.8256 11.5466 40.0924 11.7016 40.2263 11.9539L41.9238 15.1516C42.0607 15.4095 42.0343 15.7227 41.856 15.9544L38.5118 20.3026C38.362 20.4975 38.137 20.5973 37.911 20.5973C37.7178 20.5973 37.5238 20.5244 37.3751 20.3756ZM2.90964 18.7983L1.73683 17.6247C1.44516 17.3328 1.44516 16.8624 1.73683 16.5705L4.93338 13.3715C5.01916 13.2858 5.1245 13.2218 5.24058 13.1852L7.81637 12.3715C8.29617 12.22 8.78831 12.5678 8.80038 13.0669L8.86101 15.5673C8.86765 15.8404 8.72377 16.0954 8.48562 16.2327L3.82539 18.9186C3.70705 18.9868 3.57617 19.02 3.44622 19.02C3.24967 19.02 3.05531 18.9441 2.90964 18.7983ZM34.2538 17.2518L33.6684 16.6659C33.6683 16.6659 33.6682 16.6659 33.6682 16.6658L31.7919 14.7449C31.4135 14.3575 31.5598 13.7123 32.0691 13.5229L35.0857 12.4008C35.626 12.1997 36.1848 12.6497 36.0972 13.2154L35.5364 16.8384C35.4753 17.2336 35.136 17.4743 34.7861 17.4744C34.5978 17.4744 34.4065 17.4046 34.2538 17.2518ZM25.6331 18.5232L22.1744 17.0501C21.7751 16.88 21.6026 16.4118 21.7973 16.0266L22.4803 14.6751C22.658 14.3235 23.0799 14.1681 23.4461 14.3196L25.6021 15.2115C25.8355 15.3081 26.0046 15.514 26.0527 15.7602L26.4626 17.8604C26.538 18.2468 26.2305 18.5728 25.8722 18.5728C25.7937 18.5728 25.7129 18.5572 25.6331 18.5232ZM28.0954 19.6857L27.3642 15.9394C27.2941 15.5807 27.4953 15.2243 27.8403 15.096L29.2475 14.5725C29.5289 14.4678 29.846 14.5386 30.0551 14.7526L31.831 16.5709C32.1171 16.8637 32.1143 17.3296 31.8248 17.6191L29.3729 20.0706C29.2205 20.223 29.029 20.2928 28.8404 20.2928C28.5002 20.2928 28.1696 20.0656 28.0954 19.6857ZM10.2619 21.629L10.1405 16.6174C10.1279 16.0988 10.6381 15.725 11.1344 15.8892L14.4678 16.9926C14.9986 17.1684 15.1589 17.8356 14.765 18.2299L11.0557 21.942C10.9611 22.0366 10.8441 22.0791 10.7292 22.0791C10.4944 22.0791 10.2685 21.9014 10.2619 21.629ZM40.9081 23.9113L39.3388 22.3407C39.0736 22.0754 39.0462 21.6567 39.2747 21.3597L42.0743 17.7195C42.4089 17.2845 43.0858 17.3407 43.3429 17.8249L44.7225 20.4239C44.876 20.713 44.8226 21.0675 44.5907 21.2997L41.9808 23.9114C41.8331 24.0592 41.6388 24.1331 41.4445 24.1331C41.2501 24.1331 41.0558 24.0592 40.9081 23.9113ZM8.19428 24.0868L4.91945 20.8096C4.57159 20.4616 4.64914 19.8814 5.07634 19.6352L7.80251 18.064C8.29889 17.7778 8.92297 18.124 8.93683 18.6933L9.05869 23.7219C9.06194 23.8582 9.00921 23.9899 8.91242 24.0868C8.81352 24.1857 8.68343 24.2352 8.55335 24.2352C8.42327 24.2352 8.29319 24.1857 8.19428 24.0868ZM24.4619 23.9086L20.4281 19.8731C20.1999 19.6448 20.1441 19.2978 20.2893 19.0105L20.557 18.4808C20.7361 18.1263 21.1627 17.9718 21.53 18.1283L26.5996 20.2875C26.8294 20.3854 26.9954 20.5897 27.0429 20.8332L27.223 21.7559C27.2705 21.999 27.1937 22.2496 27.0178 22.4254L25.5343 23.9087C25.3867 24.0564 25.1924 24.1302 24.9983 24.1302C24.804 24.1302 24.6097 24.0563 24.4619 23.9086Z"/></g></svg>